<svg width="81" height="80" viewBox="0 0 81 80" fill="none" xmlns="http://www.w3.org/2000/svg">
<path d="M48.7514 55.1793H42.9623V36.2496C42.9623 35.9059 42.6811 35.6246 42.3373 35.6246H37.6498C37.3061 35.6246 37.0248 35.9059 37.0248 36.2496V55.1793H31.2514C30.7279 55.1793 30.4389 55.7809 30.7592 56.1871L39.5092 67.2574C39.5677 67.3321 39.6424 67.3925 39.7276 67.4341C39.8129 67.4756 39.9065 67.4972 40.0014 67.4972C40.0962 67.4972 40.1899 67.4756 40.2751 67.4341C40.3604 67.3925 40.4351 67.3321 40.4936 67.2574L49.2436 56.1871C49.5639 55.7809 49.2748 55.1793 48.7514 55.1793Z" fill="#ED4C5C"/>
<path d="M63.3928 28.6485C59.8147 19.211 50.6975 12.5 40.0178 12.5C29.3381 12.5 20.2209 19.2032 16.6428 28.6407C9.94751 30.3985 5.0022 36.5 5.0022 43.75C5.0022 52.3829 11.9944 59.375 20.6194 59.375H23.7522C24.0959 59.375 24.3772 59.0938 24.3772 58.75V54.0625C24.3772 53.7188 24.0959 53.4375 23.7522 53.4375H20.6194C17.9866 53.4375 15.51 52.3907 13.6663 50.4922C11.8303 48.6016 10.8538 46.0547 10.9397 43.4141C11.01 41.3516 11.7131 39.4141 12.9866 37.7813C14.2913 36.1172 16.1194 34.9063 18.1506 34.3672L21.1116 33.5938L22.1975 30.7344C22.8694 28.9532 23.8069 27.2891 24.9866 25.7813C26.1512 24.2868 27.5307 22.9731 29.0803 21.8829C32.2913 19.625 36.0725 18.4297 40.0178 18.4297C43.9631 18.4297 47.7444 19.625 50.9553 21.8829C52.51 22.9766 53.885 24.2891 55.0491 25.7813C56.2288 27.2891 57.1663 28.961 57.8381 30.7344L58.9163 33.586L61.8694 34.3672C66.1038 35.5079 69.0647 39.3594 69.0647 43.75C69.0647 46.336 68.0569 48.7735 66.2288 50.6016C65.3322 51.5034 64.2657 52.2184 63.091 52.7052C61.9162 53.1919 60.6566 53.4409 59.385 53.4375H56.2522C55.9084 53.4375 55.6272 53.7188 55.6272 54.0625V58.75C55.6272 59.0938 55.9084 59.375 56.2522 59.375H59.385C68.01 59.375 75.0022 52.3829 75.0022 43.75C75.0022 36.5079 70.0725 30.4141 63.3928 28.6485Z" fill="#ED4C5C"/>
</svg>
