<svg width="66" height="66" viewBox="0 0 66 66" fill="none" xmlns="http://www.w3.org/2000/svg">
<path fill-rule="evenodd" clip-rule="evenodd" d="M33.974 3.48606L55.8751 10.9497C56.4101 11.1366 56.8484 11.749 56.8355 12.3161V43.4083C56.8355 43.982 56.4681 44.7296 56.0234 45.0777L33.8064 62.3898C33.5873 62.5638 33.2908 62.654 32.9943 62.654C32.6978 62.654 32.4078 62.5638 32.1822 62.3898L9.96519 45.0777C9.52046 44.7232 9.15308 43.9755 9.15308 43.4083V12.3161C9.15308 11.749 9.59136 11.1302 10.1263 10.9497L32.0275 3.48606C32.2917 3.39583 32.6462 3.35071 33.0007 3.35071C33.3552 3.35071 33.7097 3.39583 33.974 3.48606ZM33.0007 57.1368L52.2078 42.1708V14.6107L33.0007 8.06223L13.7937 14.6107V42.1708L33.0007 57.1368Z" fill="#ED4C5C"/>
<path fill-rule="evenodd" clip-rule="evenodd" d="M25.9689 34.082L20.9738 39.0771C20.8778 39.174 20.824 39.3049 20.824 39.4412C20.824 39.5776 20.8778 39.7085 20.9738 39.8054L23.1652 41.9968C23.365 42.1966 23.6937 42.1966 23.8935 41.9968L28.8886 37.0017C32.4787 39.264 37.274 38.8321 40.4 35.7062C44.0287 32.0775 44.0287 26.1993 40.4 22.5706C36.7712 18.9419 30.8931 18.9419 27.2644 22.5706C24.1384 25.6966 23.7066 30.4984 25.9689 34.082ZM37.4802 25.4904C35.4693 23.473 32.2015 23.473 30.1841 25.4904C28.1667 27.5077 28.1732 30.7691 30.1841 32.7864C32.1951 34.8038 35.4628 34.8038 37.4802 32.7864C39.4976 30.7755 39.4976 27.5077 37.4802 25.4904Z" fill="#ED4C5C"/>
</svg>
