<svg width="32" height="32" viewBox="0 0 32 32" fill="none" xmlns="http://www.w3.org/2000/svg">
<path d="M15.9996 1.99927C8.26588 1.99927 1.99963 8.26552 1.99963 15.9993C1.99963 23.733 8.26588 29.9993 15.9996 29.9993C23.7334 29.9993 29.9996 23.733 29.9996 15.9993C29.9996 8.26552 23.7334 1.99927 15.9996 1.99927ZM10.6871 22.1174C10.6012 22.2639 10.4782 22.3853 10.3306 22.4692C10.1829 22.5531 10.0157 22.5967 9.84588 22.5955C9.67277 22.597 9.50266 22.5503 9.35463 22.4605C9.24442 22.3966 9.1479 22.3116 9.07062 22.2104C8.99333 22.1091 8.93681 21.9936 8.90429 21.8704C8.87177 21.7472 8.8639 21.6189 8.88112 21.4926C8.89833 21.3664 8.94031 21.2448 9.00463 21.1349L9.96026 19.5461C10.0085 19.4641 10.0774 19.3962 10.1601 19.349C10.2428 19.3019 10.3363 19.2772 10.4315 19.2774H10.5728C11.2659 19.2774 11.7509 19.6943 11.8921 20.098L10.6871 22.1174ZM18.7778 18.9924L12.5196 18.9993H8.36026C8.22939 18.9998 8.09978 18.9738 7.97928 18.9227C7.85878 18.8717 7.74991 18.7967 7.65926 18.7023C7.56861 18.6079 7.49808 18.4961 7.45195 18.3737C7.40582 18.2512 7.38504 18.1206 7.39088 17.9899C7.41088 17.4649 7.86901 17.0674 8.39088 17.0674H11.4059L14.9803 10.983L13.8228 9.01114C13.5621 8.56177 13.6778 7.96927 14.1246 7.68677C14.2348 7.61552 14.3582 7.56728 14.4875 7.54496C14.6168 7.52264 14.7493 7.52669 14.877 7.55687C15.0047 7.58706 15.1249 7.64275 15.2305 7.7206C15.3361 7.79845 15.4249 7.89685 15.4915 8.00989L16.1103 9.06677H16.1171L16.7365 8.00989C16.8032 7.89744 16.8918 7.79957 16.9971 7.72211C17.1025 7.64464 17.2223 7.58918 17.3495 7.55903C17.4767 7.52887 17.6087 7.52464 17.7376 7.54659C17.8664 7.56854 17.9896 7.61621 18.0996 7.68677C18.544 7.96927 18.6584 8.56177 18.3959 9.01302L17.2384 10.9849L16.1134 12.903L13.6703 17.0693V17.0761H17.2709C17.7221 17.0761 18.2878 17.3186 18.5165 17.7086L18.5365 17.7493C18.7384 18.0924 18.8528 18.328 18.8528 18.6711C18.8495 18.7826 18.8246 18.8923 18.7796 18.9943L18.7778 18.9924ZM23.6371 18.9993H21.9428V19.0061L23.1815 21.113C23.3147 21.3349 23.3555 21.6002 23.2951 21.8519C23.2347 22.1036 23.0778 22.3214 22.8584 22.4586C22.7063 22.5514 22.5315 22.6005 22.3534 22.6005C22.184 22.6004 22.0175 22.5565 21.8701 22.4731C21.7227 22.3896 21.5994 22.2695 21.5121 22.1243L19.6815 19.008L18.544 17.0705L17.0765 14.5618C16.864 14.2036 16.7484 13.7961 16.7413 13.3797C16.7342 12.9632 16.8357 12.552 17.0359 12.1868C17.3259 11.6749 17.5478 11.5405 17.5478 11.5405L20.8121 17.0618H23.619C24.144 17.0618 24.5946 17.4655 24.619 17.9836C24.6241 18.1154 24.6024 18.2468 24.5554 18.3699C24.5084 18.4931 24.437 18.6055 24.3455 18.7003C24.2539 18.7952 24.1442 18.8706 24.0228 18.9219C23.9014 18.9733 23.7708 18.9996 23.639 18.9993H23.6371Z" fill="white"/>
</svg>
