<svg width="33" height="32" viewBox="0 0 33 32" fill="none" xmlns="http://www.w3.org/2000/svg">
<path d="M3.00232 3.71809V28.2806C3.00248 28.3339 3.01838 28.3859 3.04801 28.4302C3.07764 28.4745 3.11969 28.5091 3.16888 28.5296C3.21807 28.5501 3.27222 28.5556 3.32453 28.5454C3.37685 28.5353 3.425 28.5099 3.46294 28.4725L16.2523 16L3.46294 3.52622C3.425 3.4888 3.37685 3.46343 3.32453 3.45327C3.27222 3.44311 3.21807 3.44862 3.16888 3.46911C3.11969 3.4896 3.07764 3.52416 3.04801 3.56845C3.01838 3.61275 3.00248 3.6648 3.00232 3.71809Z" fill="white"/>
<path d="M21.6147 10.874L5.57847 2.03903L5.56847 2.0334C5.29222 1.8834 5.02972 2.25715 5.25597 2.47465L17.8266 14.4946L21.6147 10.874Z" fill="white"/>
<path d="M5.25807 29.524C5.03057 29.7415 5.29307 30.1152 5.57057 29.9652L5.58057 29.9596L21.6156 21.1246L17.8274 17.5027L5.25807 29.524Z" fill="white"/>
<path d="M28.0878 14.437L23.6097 11.9708L19.399 15.9995L23.6097 20.0264L28.0878 17.562C29.3059 16.8889 29.3059 15.1101 28.0878 14.437Z" fill="white"/>
</svg>
