<svg width="70" height="70" viewBox="0 0 70 70" fill="none" xmlns="http://www.w3.org/2000/svg">
<path d="M23.7226 35.6694C23.7226 34.2155 22.7125 33.347 20.9315 33.347C20.2046 33.347 19.713 33.4178 19.4547 33.4867V38.1563C19.7608 38.2252 20.1357 38.25 20.6503 38.25C22.5499 38.25 23.7226 37.2878 23.7226 35.6694Z" fill="#ED4C5C"/>
<path d="M34.7526 33.3927C33.9549 33.3927 33.4384 33.4635 33.1323 33.5343V43.8797C33.4384 43.9505 33.93 43.9505 34.3758 43.9505C37.6126 43.9735 39.7245 42.1906 39.7245 38.4143C39.7494 35.1297 37.8249 33.3927 34.7526 33.3927Z" fill="#ED4C5C"/>
<path d="M55.8858 27.315H54.5888V21.0576C54.5877 21.0178 54.5839 20.9782 54.5773 20.939C54.5794 20.6873 54.4904 20.4434 54.3267 20.2522L43.9143 8.36102L43.9066 8.35337C43.7744 8.20988 43.6059 8.10479 43.4188 8.0492L43.3614 8.03007C43.2819 8.01026 43.2004 7.99998 43.1185 7.99947H17.5283C16.3595 7.99947 15.4107 8.95022 15.4107 10.1172V27.315H14.1136C12.4417 27.315 11.0873 28.6694 11.0873 30.3413V46.0815C11.0873 47.7515 12.4436 49.1078 14.1136 49.1078H15.4107V59.8837C15.4107 61.0507 16.3595 62.0014 17.5283 62.0014H52.4711C53.638 62.0014 54.5888 61.0507 54.5888 59.8837V49.1078H55.8858C57.5578 49.1078 58.9122 47.7515 58.9122 46.0815V30.3413C58.9122 28.6694 57.5559 27.315 55.8858 27.315ZM17.5283 10.1172H42.0587V20.9524C42.0587 21.5377 42.5331 22.0102 43.1185 22.0102H52.473V27.315H17.5283V10.1172ZM43.5259 38.2956C43.5259 41.3219 42.4241 43.4109 40.8956 44.7003C39.2313 46.0834 36.6985 46.7415 33.6013 46.7415C31.7476 46.7415 30.4353 46.6228 29.5419 46.5081V30.9765C30.8562 30.766 32.5683 30.6493 34.3761 30.6493C37.3776 30.6493 39.325 31.1888 40.8497 32.3385C42.4929 33.5571 43.5259 35.5045 43.5259 38.2956ZM15.9099 46.5788V30.9765C17.0118 30.789 18.5614 30.6493 20.7422 30.6493C22.9479 30.6493 24.5203 31.0721 25.5744 31.9157C26.5825 32.7135 27.2617 34.0277 27.2617 35.5753C27.2617 37.1248 26.7471 38.4371 25.8078 39.3286C24.5873 40.4783 22.7814 40.9948 20.6695 40.9948C20.2008 40.9948 19.778 40.9719 19.4509 40.924V46.5788H15.9099ZM52.4711 59.3098H17.5283V49.1078H52.4711V59.3098ZM55.5396 33.6986H49.462V37.3123H55.1397V40.222H49.462V46.5788H45.8751V30.766H55.5396V33.6986Z" fill="#ED4C5C"/>
</svg>
