<svg width="47" height="54" viewBox="0 0 47 54" fill="none" xmlns="http://www.w3.org/2000/svg">
<g clip-path="url(#clip0_1_702)">
<path d="M44.0262 18.9602H42.7516V12.8187C42.7505 12.7797 42.7467 12.7408 42.7403 12.7023C42.7421 12.4556 42.6538 12.2167 42.4921 12.0301L32.2612 0.357287L32.2536 0.349777C32.1923 0.283674 32.1228 0.22563 32.0468 0.17704L31.9792 0.135733C31.9142 0.0996429 31.8455 0.0706848 31.7742 0.0493652L31.7178 0.03059C31.6397 0.0111403 31.5596 0.0010559 31.4791 0.000549316H6.33033C5.18165 0.000549316 4.24917 0.933701 4.24917 2.07902V18.9584H2.97453C1.33141 18.9584 0.000366211 20.2877 0.000366211 21.9287V37.3773C0.000366211 39.0164 1.33329 40.3476 2.97453 40.3476H4.24917V50.9221C4.24917 52.0674 5.18165 53.0005 6.33033 53.0005H40.6704C41.8172 53.0005 42.7516 52.0674 42.7516 50.9221V40.3476H44.0262C45.6674 40.3476 47.0004 39.0183 47.0004 37.3773V21.9287C47.0004 20.2896 45.6693 18.9602 44.0262 18.9602ZM6.33033 2.07902H30.4376V12.7136C30.4376 13.2881 30.9038 13.7519 31.4791 13.7519H40.6723V18.9584H6.33033V2.07902ZM21.9005 30.558C19.3738 29.6567 17.7062 28.2598 17.7062 26.0537C17.7062 23.4645 19.8945 21.5062 23.4571 21.5062C25.1942 21.5062 26.4332 21.8442 27.3356 22.2704L26.5685 25.0173C25.5855 24.5391 24.5055 24.2931 23.412 24.2982C21.923 24.2982 21.2011 24.9947 21.2011 25.7608C21.2011 26.7296 22.034 27.1558 24.0192 27.8993C26.7039 28.8907 27.9428 30.2857 27.9428 32.4262C27.9428 34.9721 26.0045 37.1332 21.8328 37.1332C20.0957 37.1332 18.383 36.6601 17.5257 36.1869L18.2251 33.3724C19.4056 33.9744 20.7086 34.2982 22.034 34.3187C23.6132 34.3187 24.4479 33.6635 24.4479 32.674C24.4479 31.7277 23.7278 31.1888 21.9005 30.558ZM3.99161 29.5216C3.99161 24.3639 7.68957 21.5043 12.288 21.5043C14.0703 21.5043 15.422 21.863 16.0311 22.1577L15.3092 24.8821C14.396 24.4991 13.4138 24.3074 12.4234 24.3188C9.71809 24.3188 7.59933 25.9617 7.59933 29.3394C7.59933 32.3567 9.40225 34.2718 12.446 34.2718C13.5063 34.2718 14.6343 34.0709 15.3318 33.7761L15.83 36.4779C15.2208 36.769 13.777 37.1313 11.9515 37.1313C6.69693 37.1332 3.99161 33.8456 3.99161 29.5216ZM40.6704 50.3626H6.33033V40.3495H40.6704V50.3626ZM37.8918 36.9079H33.878L29.0088 21.7296H32.7744L34.6224 28.1491C35.1394 29.9722 35.6132 31.6845 35.9742 33.5752H36.0418C36.4263 31.771 36.8847 29.9833 37.4161 28.2166L39.3563 21.7315H43.0072L37.8918 36.9079Z" fill="#ED4C5C"/>
</g>
<defs>
<clipPath id="clip0_1_702">
<rect width="47" height="54" fill="white" transform="translate(0.000610352 0.000152588)"/>
</clipPath>
</defs>
</svg>
